<?xml version="1.0" standalone="no"?>
<!DOCTYPE svg PUBLIC "-//W3C//DTD SVG 20010904//EN"
 "http://www.w3.org/TR/2001/REC-SVG-20010904/DTD/svg10.dtd">
<svg version="1.0" xmlns="http://www.w3.org/2000/svg"
 width="600.000000pt" height="600.000000pt" viewBox="0 0 600.000000 600.000000"
 preserveAspectRatio="xMidYMid meet">
<metadata>
Created by potrace 1.11, written by Peter Selinger 2001-2013
</metadata>
<g transform="translate(0.000000,600.000000) scale(0.100000,-0.100000)"
fill="#000000" stroke="none">
<path d="M2780 5960 c0 -11 -5 -20 -12 -20 -6 0 -9 -3 -5 -6 3 -4 0 -22 -8
-40 -8 -19 -11 -34 -8 -34 3 0 0 -7 -7 -15 -7 -8 -9 -15 -5 -15 4 0 3 -6 -2
-12 -6 -7 -27 -65 -48 -128 -21 -63 -43 -121 -48 -127 -5 -7 -7 -13 -3 -13 4
0 0 -13 -8 -29 -9 -16 -12 -31 -9 -35 4 -3 2 -6 -3 -6 -5 0 -10 -8 -11 -17 -1
-10 -7 -31 -14 -48 -7 -16 -12 -33 -11 -37 1 -5 -3 -8 -8 -8 -10 0 -577 377
-611 406 -8 8 -19 14 -23 14 -7 0 -2 -69 9 -130 1 -8 6 -37 10 -65 5 -27 9
-52 10 -55 0 -3 5 -30 9 -60 4 -30 9 -62 11 -70 5 -26 17 -94 20 -115 2 -11 6
-35 9 -52 4 -18 4 -33 0 -33 -7 0 -66 40 -74 50 -8 11 -159 110 -166 110 -4 0
-15 6 -23 14 -20 17 -181 99 -186 94 -2 -2 20 -39 50 -82 63 -92 158 -275 204
-396 18 -47 37 -93 42 -102 5 -10 9 -25 9 -33 0 -22 14 -19 83 18 164 88 485
206 636 234 14 2 27 6 31 8 4 2 29 7 56 11 27 3 52 8 55 10 3 1 28 6 55 10 27
3 57 8 67 10 102 19 464 26 612 11 123 -12 270 -35 370 -58 50 -12 94 -22 99
-23 9 -1 13 15 21 74 13 98 16 117 19 135 3 11 5 20 6 20 1 0 3 14 5 30 2 17
6 41 10 55 7 28 13 56 19 85 7 34 67 209 83 238 18 36 13 43 -15 20 -11 -10
-37 -31 -57 -48 -46 -38 -165 -151 -165 -158 0 -2 -17 -22 -37 -44 -21 -21
-53 -57 -70 -79 l-33 -39 4 32 c2 18 1 35 -2 38 -3 3 -7 36 -9 73 -4 100 -9
141 -15 148 -3 3 -2 18 2 34 4 16 5 31 2 35 -6 6 -7 21 -14 167 -2 38 -7 68
-13 68 -5 0 -41 -35 -80 -77 -38 -42 -98 -105 -132 -141 -35 -36 -63 -67 -63
-69 0 -2 -27 -30 -60 -64 -33 -33 -60 -62 -60 -63 0 -2 -27 -31 -60 -66 -39
-41 -65 -60 -75 -57 -8 4 -15 11 -15 17 0 6 -5 16 -10 23 -17 20 -200 306
-200 312 0 3 -5 11 -10 18 -20 23 -80 119 -80 128 0 5 -4 9 -10 9 -5 0 -10 7
-10 15 0 8 -7 15 -15 15 -8 0 -15 -9 -15 -20z"/>
<path d="M3177 5034 c-1 -1 -59 -4 -128 -8 -70 -3 -133 -8 -140 -10 -8 -3 -36
-7 -64 -10 -128 -13 -313 -55 -468 -107 -171 -58 -347 -134 -347 -150 0 -6 4
-8 9 -5 16 11 126 -34 176 -72 68 -52 167 -184 149 -201 -3 -3 -8 -1 -12 5
-12 18 -117 63 -179 77 -191 44 -350 -55 -392 -243 -10 -42 -8 -195 3 -250 6
-33 44 -137 63 -173 8 -16 12 -31 9 -34 -9 -9 -58 27 -108 80 -134 139 -173
384 -93 581 7 17 6 17 -16 6 -13 -7 -29 -18 -36 -24 -7 -6 -18 -15 -25 -21
-29 -23 -124 -101 -138 -115 -9 -8 -36 -33 -61 -56 -130 -121 -279 -298 -377
-449 -42 -64 -152 -253 -152 -260 0 -3 51 -12 198 -36 39 -7 72 -14 72 -17 0
-3 -20 -30 -45 -61 -73 -91 -93 -120 -168 -253 -164 -285 -294 -660 -313 -900
-3 -38 -4 -68 -2 -68 1 0 23 7 48 14 190 59 381 116 388 116 5 0 4 -25 -4 -56
-7 -31 -15 -81 -19 -112 -3 -32 -8 -77 -11 -102 -6 -51 -6 -454 0 -515 3 -22
7 -67 10 -100 3 -33 8 -71 11 -85 2 -14 7 -44 10 -67 20 -149 73 -327 135
-461 39 -83 48 -92 72 -69 7 7 33 28 58 47 109 85 320 305 445 463 81 103 176
235 187 259 11 25 35 44 44 35 2 -2 5 -12 7 -23 1 -10 6 -25 10 -31 5 -7 6
-13 3 -13 -3 0 1 -21 9 -47 11 -40 21 -86 31 -138 1 -5 3 -12 4 -15 1 -3 3
-16 4 -30 2 -14 6 -50 10 -80 26 -184 16 -514 -20 -695 -3 -11 -7 -39 -10 -61
-2 -23 -7 -53 -10 -65 -3 -13 -7 -37 -10 -54 -3 -16 -8 -41 -11 -55 -17 -85
-19 -111 -8 -120 7 -5 50 -27 96 -49 128 -59 300 -112 439 -136 55 -9 569 -5
614 5 23 4 59 11 81 14 22 4 48 9 57 12 9 3 25 7 35 9 53 11 204 59 285 91 85
33 286 130 298 143 3 4 31 23 64 44 42 28 61 36 69 28 6 -6 7 -11 3 -11 -5 0
-3 -7 4 -15 7 -9 10 -18 7 -21 -3 -4 0 -23 8 -43 8 -20 24 -78 36 -128 15 -62
27 -93 36 -93 12 0 42 19 92 57 9 7 43 32 76 57 87 65 210 179 289 267 53 59
176 225 176 238 0 5 4 11 8 13 10 4 90 145 126 223 30 62 102 258 110 297 3
13 10 42 16 66 5 23 13 59 16 80 3 20 8 40 10 43 5 8 16 94 18 131 0 16 6 28
11 28 6 0 49 -41 95 -92 108 -117 111 -120 117 -114 9 9 63 198 87 308 23 103
29 134 41 223 24 171 24 451 1 585 -3 14 -7 43 -10 65 -9 59 -15 93 -33 164
-8 36 -17 73 -19 84 -6 35 -86 262 -95 272 -5 5 -9 15 -9 23 0 24 -145 304
-219 422 -39 63 -77 124 -84 134 -7 11 -20 29 -29 40 -10 11 -18 24 -18 30 0
6 -3 6 -9 1 -5 -6 -12 -34 -15 -64 -4 -29 -9 -57 -11 -61 -3 -5 -35 24 -72 63
-38 38 -81 83 -96 100 l-29 29 36 37 c28 29 34 42 30 65 -8 44 -42 111 -72
139 l-27 26 -51 -23 c-28 -13 -66 -37 -86 -55 l-35 -31 -40 29 c-54 39 -160
94 -173 89 -10 -3 14 -40 53 -80 9 -10 17 -22 17 -26 0 -5 9 -18 20 -30 12
-12 18 -22 15 -22 -14 0 57 -89 96 -120 23 -19 47 -39 53 -45 6 -5 32 -27 57
-47 59 -47 189 -171 189 -180 0 -4 -19 -1 -41 8 -149 52 -397 52 -552 0 l-72
-24 -85 91 c-108 115 -185 192 -235 238 -44 39 -48 48 -46 98 1 39 30 121 42
121 5 0 9 7 9 15 0 8 5 15 10 15 6 0 10 7 10 15 0 8 -7 15 -15 15 -27 0 -111
-36 -158 -68 -25 -18 -48 -32 -51 -32 -3 0 -29 15 -58 33 -117 74 -300 146
-358 140 -19 -1 -55 -10 -80 -19 -46 -16 -71 -24 -80 -26 -13 -3 -131 -76
-172 -107 -54 -39 -58 -51 -25 -67 12 -6 54 -27 92 -46 117 -60 164 -70 330
-74 265 -6 243 4 482 -225 39 -38 70 -69 69 -69 -2 0 17 -21 41 -46 25 -25 43
-48 40 -50 -3 -3 -25 0 -48 6 -24 7 -46 13 -49 13 -111 22 -166 25 -434 24
-299 -1 -301 -1 -386 26 -200 63 -357 231 -363 389 -1 28 -17 39 -62 43 -62 5
-136 18 -140 25 -7 12 99 115 168 163 60 41 120 74 181 97 l28 10 -41 39 c-23
22 -48 42 -56 45 -26 9 -17 22 43 62 31 22 59 42 62 46 16 20 218 114 318 148
105 35 148 47 247 68 69 15 129 7 190 -24 138 -72 307 -175 418 -258 l29 -21
19 24 c10 12 16 27 13 32 -3 5 -1 9 4 9 6 0 13 17 17 37 4 21 10 42 13 48 6
10 7 15 10 68 2 28 18 34 50 18 277 -149 491 -299 640 -451 l25 -25 -8 25 c-4
14 -19 49 -33 79 -13 30 -25 60 -26 65 -1 6 -7 20 -12 31 -6 11 -16 40 -23 65
-8 25 -17 56 -22 70 -4 14 -13 58 -20 98 l-12 74 -73 59 c-40 32 -77 59 -82
59 -6 0 -12 4 -14 8 -3 7 -40 30 -148 89 -73 41 -312 130 -395 149 -5 1 -22 5
-37 9 -32 8 -34 1 -13 -42 8 -16 16 -38 18 -49 1 -10 5 -23 8 -29 4 -5 5 -18
4 -27 -2 -10 0 -18 3 -18 4 0 8 -20 10 -45 1 -25 -1 -45 -4 -45 -9 0 -84 83
-84 93 0 4 -5 7 -10 7 -6 0 -27 17 -48 38 -47 47 -154 127 -207 154 -24 13
-66 22 -105 25 -86 5 -211 9 -213 7z m952 -1823 c80 -51 198 -111 217 -111 7
0 19 -11 28 -25 9 -14 13 -25 9 -25 -5 0 -8 -45 -8 -100 0 -55 4 -100 9 -100
5 0 4 -6 -1 -12 -6 -7 -9 -30 -7 -50 3 -35 0 -39 -84 -106 -254 -201 -480
-315 -638 -321 -48 -2 -47 -3 -109 114 -26 50 -52 96 -57 103 -6 6 -7 12 -2
12 5 0 4 4 -2 8 -11 7 -29 37 -61 105 -10 20 -21 37 -25 37 -5 0 -8 9 -8 20 0
11 -4 20 -10 20 -5 0 -10 6 -10 14 0 8 -7 22 -16 30 -9 9 -18 29 -20 44 -4 24
4 33 76 82 45 30 86 60 93 65 83 69 375 208 502 238 40 9 49 6 124 -42z m729
-75 c18 -54 34 -112 37 -130 2 -17 8 -52 13 -77 14 -74 12 -248 -4 -326 -14
-68 -31 -120 -56 -170 -12 -25 -28 -31 -28 -10 0 22 -95 160 -156 226 -78 85
-92 109 -83 143 4 15 5 29 2 32 -3 3 -5 60 -5 126 1 101 4 125 18 141 9 10 21
19 26 19 5 0 24 11 42 25 18 14 38 25 44 25 6 0 15 6 19 13 13 20 77 66 88 63
6 -1 25 -46 43 -100z m-264 -762 c31 -35 102 -176 111 -221 12 -61 -73 -280
-147 -377 -46 -62 -162 -166 -171 -157 -5 5 -11 51 -12 103 -2 51 -7 104 -10
118 -4 14 -9 40 -11 57 -2 18 -9 44 -14 58 l-10 25 -53 -43 c-50 -41 -206
-124 -248 -132 -11 -2 -35 -9 -53 -16 -18 -7 -40 -10 -47 -7 -8 3 -28 32 -44
64 -17 33 -34 62 -40 66 -5 4 -6 8 -1 8 5 0 4 6 -2 13 -17 21 -82 144 -82 155
0 6 25 16 54 22 68 14 261 108 304 148 7 6 23 17 35 24 12 6 54 35 93 65 69
52 73 53 133 52 34 -1 63 0 66 2 2 2 30 4 63 3 53 0 63 -3 86 -30z"/>
</g>
</svg>
